<?xml version="1.0" encoding="utf-8"?>
<!-- Generator: Adobe Illustrator 28.0.0, SVG Export Plug-In . SVG Version: 6.00 Build 0)  -->
<svg version="1.1" xmlns="http://www.w3.org/2000/svg" xmlns:xlink="http://www.w3.org/1999/xlink" x="0px" y="0px"
	 viewBox="0 0 50 50" style="enable-background:new 0 0 50 50;" xml:space="preserve">
<style type="text/css">
	.st0{fill:#0006FF;}
	.st1{display:none;fill:#231F20;}
	.st2{fill:#FFFFFF;}
</style>
<g id="Layer_4">
	<path class="st0" d="M33.27,0H16.73c-1.34,0-2.62,0.53-3.56,1.48L1.48,13.17C0.53,14.11,0,15.4,0,16.73v16.54
		c0,1.34,0.53,2.62,1.48,3.56l11.69,11.69C14.11,49.47,15.4,50,16.73,50h16.54c1.34,0,2.62-0.53,3.56-1.48l11.69-11.69
		C49.47,35.89,50,34.6,50,33.27V16.73c0-1.34-0.53-2.62-1.48-3.56L36.83,1.48C35.89,0.53,34.6,0,33.27,0z"/>
</g>
<g id="Layer_2">
	<path class="st1" d="M46.23,33.94V16.06c0-2.05-1.09-3.95-2.87-4.97L27.87,2.14c-1.78-1.03-3.97-1.03-5.74,0L6.64,11.08
		c-1.78,1.03-2.87,2.92-2.87,4.97v17.89c0,2.05,1.09,3.95,2.87,4.97l15.49,8.94c1.78,1.03,3.97,1.03,5.74,0l15.49-8.94
		C45.14,37.89,46.23,35.99,46.23,33.94z"/>
	<path class="st2" d="M16.98,14.17v23.96c0,0.4,0.43,0.65,0.78,0.45L38.5,26.6c0.34-0.2,0.34-0.7,0-0.9l-3.96-2.3
		c-0.16-0.09-0.36-0.09-0.52,0l-9.15,5.28c-0.34,0.2-0.78-0.05-0.78-0.45l0-2.29c0-0.18,0.1-0.36,0.26-0.45l11.65-6.73
		c0.34-0.2,0.34-0.7,0-0.9l-11.17-6.45c-0.34-0.2-0.78,0.05-0.78,0.45v4.59c0,0.4-0.43,0.65-0.78,0.45l-5.53-3.19
		C17.41,13.52,16.98,13.77,16.98,14.17z"/>
</g>
</svg>
