<svg xmlns="http://www.w3.org/2000/svg" xmlns:xlink="http://www.w3.org/1999/xlink" width="50" height="50" viewBox="0 0 50 50">
  <style>
    .st0 { display: none; }
    .st1 { display: inline; }
    .st2 { fill: #FFFFFF; }
  </style>
  <g id="Layer_1" class="st0">
    <g class="st1">
      <path class="st2" d="M503.43,554.29c-122.33,0-244.65,0-366.96,0c0-122.33,0-244.65,0-366.96c122.33,0,244.65,0,366.96,0 C503.43,309.67,503.43,431.99,503.43,554.29z M198.26,548.81c95.1-54.91,189.93-109.66,284.95-164.52c-0.64-0.41-1.09-0.73-1.56-1 c-20.29-11.72-40.59-23.41-60.86-35.17c-1.17-0.68-1.96-0.55-3.05,0.08c-42.28,24.45-84.58,48.86-126.88,73.28 c-0.47,0.27-0.96,0.49-1.62,0.83c0-0.78,0-1.33,0-1.88c0-13.64,0.02-27.27-0.04-40.91c-0.01-1.33,0.44-1.98,1.55-2.62 c52.29-30.15,104.56-60.32,156.83-90.5c1.19-0.69,2.36-1.4,3.73-2.22c-54.22-31.31-108.22-62.48-162.53-93.84 c0,27.39,0,54.38,0,81.6c-30.27-17.47-60.3-34.81-90.52-52.25C198.26,329.53,198.26,439,198.26,548.81z" />
      <path d="M419.42,347.19c20.27,11.76,41.93,24.39,62.23,36.10c0.47,0.27,0.92,0.59,1.56,1c-95.02,54.86-189.85,109.61-284.95,164.52 c0-109.81,0-219.28,0-329.12c30.22,17.45,60.25,34.78,90.52,52.25c0-27.22,0-54.21,0-81.60c54.31,31.36,108.31,62.53,162.53,93.84 c-1.37,0.82-2.55,1.53-3.73,2.22c-52.27,30.18-104.54,60.35-156.83,90.50c-1.11,0.64-1.56,1.30-1.55,2.62 c0.06,13.64,0.04,27.27,0.04,40.91c0,0.55,0,1.11,0,1.88c0.66-0.34,1.16-0.56,1.62-0.83c42.3-24.42,84.6-48.83,126.88-73.28 L419.42,347.19z" />
    </g>
  </g>
  <g id="Layer_2">
    <path d="M8.04,7.15v39.49c0,0.66,0.71,1.07,1.28,0.74l34.19-19.74c0.57-0.33,0.57-1.15,0-1.47l-6.53-3.8 c-0.26-0.15-0.59-0.15-0.85,0l-15.08,8.7c-0.57,0.33-1.28-0.08-1.28-0.74l0-3.78c0-0.30,0.16-0.59,0.43-0.74l19.2-11.08 c0.57-0.33,0.57-1.15,0-1.48L20.99,2.63c-0.57-0.33-1.28,0.08-1.28,0.74v7.57c0,0.66-0.71,1.07-1.28,0.74L9.32,6.41 C8.75,6.08,8.04,6.49,8.04,7.15z" />
  </g>
</svg>
