<?xml version="1.0" encoding="utf-8"?>
<!-- Generator: Adobe Illustrator 28.0.0, SVG Export Plug-In . SVG Version: 6.00 Build 0)  -->
<svg version="1.1" xmlns="http://www.w3.org/2000/svg" xmlns:xlink="http://www.w3.org/1999/xlink" x="0px" y="0px"
	 viewBox="0 0 50 50" style="enable-background:new 0 0 50 50;" xml:space="preserve">
<style type="text/css">
	.st0{fill:#FFFFFF;}
</style>
<g id="Layer_3">
</g>
<g id="Layer_2">
	<path d="M46.23,33.94V16.06c0-2.05-1.09-3.95-2.87-4.97L27.87,2.14c-1.78-1.03-3.97-1.03-5.74,0L6.64,11.08
		c-1.78,1.03-2.87,2.92-2.87,4.97v17.89c0,2.05,1.09,3.95,2.87,4.97l15.49,8.94c1.78,1.03,3.97,1.03,5.74,0l15.49-8.94
		C45.14,37.89,46.23,35.99,46.23,33.94z"/>
	<path class="st0" d="M18.24,15.74v20.48c0,0.34,0.37,0.55,0.66,0.38l17.73-10.24c0.29-0.17,0.29-0.59,0-0.76l-3.39-1.97
		c-0.14-0.08-0.31-0.08-0.44,0l-7.82,4.51c-0.29,0.17-0.66-0.04-0.66-0.38l0-1.96c0-0.16,0.08-0.3,0.22-0.38l9.96-5.75
		c0.29-0.17,0.29-0.6,0-0.77l-9.54-5.51c-0.29-0.17-0.66,0.04-0.66,0.38v3.93c0,0.34-0.37,0.55-0.66,0.38l-4.73-2.73
		C18.61,15.19,18.24,15.4,18.24,15.74z"/>
</g>
</svg>
