<?xml version="1.0" encoding="utf-8"?>
<!-- Generator: Adobe Illustrator 28.0.0, SVG Export Plug-In . SVG Version: 6.00 Build 0)  -->
<svg version="1.1" id="Layer_1" xmlns="http://www.w3.org/2000/svg" xmlns:xlink="http://www.w3.org/1999/xlink" x="0px" y="0px"
	 viewBox="0 0 50 50" style="enable-background:new 0 0 50 50;" xml:space="preserve">
<style type="text/css">
	.st0{fill:#2B4237;}
	.st1{fill:#F4F1ED;}
</style>
<path class="st0" d="M30.3,0.5H19.7c-3.1,0-6.1,1.2-8.3,3.4l-7.5,7.5c-2.2,2.2-3.4,5.2-3.4,8.3v10.6c0,3.1,1.2,6.1,3.4,8.3l7.5,7.5
	c2.2,2.2,5.2,3.4,8.3,3.4h10.6c3.1,0,6.1-1.2,8.3-3.4l7.5-7.5c2.2-2.2,3.4-5.2,3.4-8.3V19.7c0-3.1-1.2-6.1-3.4-8.3l-7.5-7.5
	C36.4,1.7,33.4,0.5,30.3,0.5z"/>
<path class="st1" d="M15.7,13.2v26c0,0.4,0.5,0.7,0.8,0.5l22.5-13c0.4-0.2,0.4-0.7,0-1l-4.3-2.5c-0.2-0.1-0.4-0.1-0.6,0L24.3,29
	c-0.4,0.2-0.8-0.1-0.8-0.5V26c0-0.2,0.1-0.4,0.3-0.5l12.7-7.3c0.4-0.2,0.4-0.8,0-1l-12.1-7c-0.4-0.2-0.8,0.1-0.8,0.5v5
	c0,0.4-0.5,0.7-0.8,0.5l-6-3.5C16.2,12.5,15.7,12.8,15.7,13.2z"/>
</svg>
